<svg class="icon" viewBox="0 0 1024 1024" xmlns="http://www.w3.org/2000/svg" width="200" height="200"><path d="M311.49 44.336a206.516 206.516 0 0 0-58.95 6.92 16.605 16.605 0 0 1-8.69-32.077 239.671 239.671 0 0 1 68.36-8.026c23.8.498 45.277 3.875 64.484 9.548a16.605 16.605 0 1 1-9.438 31.883 212.41 212.41 0 0 0-55.766-8.22zM154.209 93.433a16.605 16.605 0 0 1 4.65 23.026c-12.15 18.322-17.713 36.532-17.713 50.813v51.809a16.605 16.605 0 1 1-33.21 0v-51.81c0-22.278 8.385-46.716 23.247-69.188a16.605 16.605 0 0 1 23.026-4.65zm303.879 1.107a16.605 16.605 0 0 1 22.528 6.532c12.066 21.919 17.934 45.139 17.934 66.2v66.698a16.605 16.605 0 1 1-33.211 0v-66.698c0-15.083-4.262-32.851-13.81-50.176a16.605 16.605 0 0 1 6.531-22.556zM124.54 306.12a16.605 16.605 0 0 1 16.605 16.606v103.618a16.605 16.605 0 1 1-33.21 0V322.726a16.605 16.605 0 0 1 16.605-16.605zm774.918 23.22a16.605 16.605 0 0 1 16.606 16.606v44.336a16.605 16.605 0 1 1-33.21 0v-44.336a16.605 16.605 0 0 1 16.604-16.605zm-417.515 21.422a16.605 16.605 0 0 1 16.606 16.605v133.397a16.605 16.605 0 0 1-33.211 0V367.367a16.605 16.605 0 0 1 16.605-16.605zm417.515 111.67a16.605 16.605 0 0 1 16.606 16.606v88.728a16.605 16.605 0 0 1-33.21 0v-88.7a16.605 16.605 0 0 1 16.604-16.605zm-774.918 50.924a16.605 16.605 0 0 1 16.605 16.606v103.645a16.605 16.605 0 1 1-33.21 0V529.989a16.605 16.605 0 0 1 16.605-16.605zm357.403 104.171a16.605 16.605 0 0 1 16.606 16.606v66.698c0 18.709 6.586 40.296 19.815 61.606a16.605 16.605 0 0 1-28.201 17.519c-15.748-25.351-24.825-52.916-24.825-79.153v-66.698a16.605 16.605 0 0 1 16.605-16.605zm417.515 22.39a16.605 16.605 0 0 1 16.606 16.605v44.281c0 25.711-8.11 52.861-22.611 78.074a16.605 16.605 0 1 1-28.783-16.578c12.177-21.09 18.183-42.62 18.183-61.468v-44.309a16.605 16.605 0 0 1 16.605-16.605zm-774.918 80.73a16.605 16.605 0 0 1 16.605 16.605V840.87a16.605 16.605 0 1 1-33.21 0V737.28a16.605 16.605 0 0 1 16.605-16.605zm480.394 134.448a16.605 16.605 0 0 1 20.923-10.627c20.84 6.78 43.727 10.71 68.442 10.71 24.548 0 46.965-3.874 67.113-10.544a16.605 16.605 0 0 1 10.462 31.523 245.732 245.732 0 0 1-77.575 12.232 253.066 253.066 0 0 1-78.738-12.37 16.605 16.605 0 0 1-10.627-20.924zM124.54 927.882a16.605 16.605 0 0 1 16.605 16.606v51.836a16.605 16.605 0 1 1-33.21 0v-51.809a16.605 16.605 0 0 1 16.605-16.605zM954.81 166.054a55.351 55.351 0 1 1-110.702 0 55.351 55.351 0 0 1 110.703 0z"/></svg>