<svg class="icon" viewBox="0 0 1024 1024" xmlns="http://www.w3.org/2000/svg" width="200" height="200"><path d="M864.02 64h-704A95.98 95.98 0 0 0 64 160.02v704A95.98 95.98 0 0 0 160.02 960h704A96.02 96.02 0 0 0 960 863.98V160.02a96.02 96.02 0 0 0-96.02-95.98zM896 160.02v192H671.98V128h192A31.98 31.98 0 0 1 896 160.02zm-115.83 448a143.99 143.99 0 0 0-108.19-108.19v-83.85H896v192.04H780.17zM260.49 415.94a128 128 0 0 0 91.53 91.53v100.51H128V415.94h132.49zm247.02-63.96a127.96 127.96 0 0 0-91.49-91.53V128h191.96v224.02H507.55zm-91.49 155.49a127.921 127.921 0 0 0 91.49-91.49h100.51v83.81a144.03 144.03 0 0 0-108.19 108.15h-83.85V507.51zm83.81 164.51a144.03 144.03 0 0 0 108.15 108.15v115.83H416.02V671.94h83.81zM640 719.95a79.99 79.99 0 1 1 0-159.98 79.99 79.99 0 0 1 0 159.98zM159.98 128h192v132.49a128 128 0 0 0-91.49 91.53H128V159.94a31.98 31.98 0 0 1 32.02-31.98zM128 864.02v-192h224.02V896H159.94a31.98 31.98 0 0 1-31.98-32.02zM864.02 896h-192V780.17a143.99 143.99 0 0 0 108.15-108.19H896v192A31.98 31.98 0 0 1 863.98 896z"/></svg>